<svg xmlns="http://www.w3.org/2000/svg" width="158" height="37" viewBox="0 0 158 37" fill="none">
  <g clip-path="url(#clip0_668_1122)">
    <path d="M4.22264 23.8695L0.250488 19.6629V6.01538H5.99884L10.5327 21.8603L15.0666 6.01538H21.0032V19.7092L16.9832 23.8695L16.9369 13.1663L12.5898 27.0946H8.52349L4.22264 13.3067V23.8695Z" fill="white"/>
    <path d="M0.133301 21.158L0.250583 29.7116H4.29372V25.4355L0.133301 21.158Z" fill="white"/>
    <path d="M21.1531 21.158L21.0358 29.7116H16.9927V25.4355L21.1531 21.158Z" fill="white"/>
    <path d="M36.0065 6.01538H33.1084L24.1348 29.7118H28.948L30.2566 25.8802H38.8984L40.1592 29.7118H45.0217L36.0065 6.01538ZM31.6655 21.6736L34.5883 13.728L37.4138 21.6736H31.6655Z" fill="white"/>
    <path d="M45.5293 6.01538H50.2267L55.1001 14.2758L58.6047 8.10633L64.5645 6.01538L57.5183 18.2031L64.3191 29.7118H59.5167L55.205 22.3742L51.8749 28.7535L45.5293 30.9972L52.7853 18.308L45.5293 6.01538Z" fill="white"/>
    <path d="M45.1789 31.8379L51.3485 29.7114L48.2637 34.5368L42.165 36.745L45.1789 31.8379Z" fill="white"/>
    <path d="M58.8159 7.19567L61.9702 2.32244L67.9994 0.254639L65.055 5.02139L58.8159 7.19567Z" fill="white"/>
    <path d="M82.7319 6.01538V10.2683H71.3417V25.3648H82.7319V29.8059H66.9482V6.01538H82.7319Z" fill="white"/>
    <path d="M81.0159 15.8293H72.5562V20.0822H81.0159V15.8293Z" fill="white"/>
    <path d="M91.2055 30.1331H86.8599V6.01538H92.4215L100.787 23.3093V6.01538H105.042V29.8059H99.5726L91.1592 12.6987L91.2055 30.1331Z" fill="white"/>
    <path d="M114.67 10.4087H109.855V29.8522H114.67V10.4087Z" fill="white"/>
    <path d="M114.67 5.95483H109.855V9.47319H114.67V5.95483Z" fill="white"/>
    <path d="M123.597 6.01525V13.1044C123.597 14.915 123.588 16.7251 123.569 18.5347C123.557 19.8186 123.46 21.121 123.705 22.3926C124.088 24.3678 125.645 25.4788 127.6 25.5961C129.52 25.7149 131.381 24.5838 131.855 22.6642C132.163 21.405 132.055 19.9544 132.071 18.669C132.109 15.4284 132.071 12.1878 132.024 8.95647C132.009 7.97606 131.993 6.99566 131.975 6.01525H136.287L136.348 11.7249L136.444 20.5115C136.473 23.3076 136.115 25.9248 133.94 27.9062C132.228 29.4632 129.762 30.1052 127.489 30.0666C126.379 30.0574 125.278 29.8597 124.234 29.4817C122.418 28.814 120.927 27.4752 120.068 25.7412C118.735 23.0623 119.179 19.5686 119.179 16.6475V7.75437C119.179 7.66023 119.179 5.95044 119.179 5.95044L123.597 6.01525Z" fill="white"/>
    <path d="M155.461 12.1027C155.526 11.9792 153.763 11.0749 153.657 11.0225C151.709 10.112 145.459 8.98553 145.478 12.8326C145.478 12.9051 145.478 12.9776 145.487 13.0486C145.487 13.0486 145.399 15.2754 149.799 15.7491C149.799 15.7491 155.635 16.4327 157.052 19.2891C158.468 22.1454 157.823 25.2008 156.614 26.9307C156.614 26.9307 154.814 29.6651 150.441 29.9213C150.441 29.9213 146.679 30.6465 141.817 28.3781C141.817 28.3781 140.135 27.3736 139.901 27.0696L142.004 23.3537C142.004 23.3537 144.131 25.6205 148.64 25.69C150.24 25.7162 152.399 25.4739 153.185 23.8382C153.777 22.6037 153.185 21.3599 151.982 20.789C151.719 20.6662 151.445 20.5686 151.163 20.4973C151.163 20.4973 146.583 19.7967 145.392 19.2829C145.392 19.2829 141.581 18.5576 141.091 14.2353C141.091 14.2353 140.39 9.29725 143.989 7.29117C143.989 7.29117 146.864 5.18787 152.168 6.09987C152.168 6.09987 154.019 6.24029 157.402 8.29575L155.461 12.1027Z" fill="white"/>
  </g>
  <defs>
    <clipPath id="clip0_668_1122">
      <rect width="157.733" height="36.4905" fill="white" transform="translate(0.133301 0.254639)"/>
    </clipPath>
  </defs>
</svg>