<svg width="21" height="21" viewBox="0 0 21 21" fill="none" xmlns="http://www.w3.org/2000/svg">
<g id="clarity:arrow-line">
<path id="Vector" d="M11.8942 16.1351L17.5 10.5001L11.8942 4.86506C11.8435 4.79857 11.7792 4.74374 11.7056 4.70428C11.6319 4.66481 11.5506 4.64164 11.4672 4.63632C11.3838 4.63099 11.3003 4.64365 11.2222 4.67344C11.1441 4.70322 11.0733 4.74943 11.0147 4.80894C10.956 4.86845 10.9108 4.93988 10.8821 5.01837C10.8535 5.09687 10.842 5.18061 10.8485 5.26392C10.855 5.34723 10.8794 5.42817 10.9199 5.50126C10.9604 5.57435 11.0161 5.63788 11.0833 5.68756L15.2775 9.91672L4.11833 9.91672C3.96362 9.91672 3.81525 9.97818 3.70586 10.0876C3.59646 10.197 3.535 10.3453 3.535 10.5001C3.535 10.6548 3.59646 10.8031 3.70586 10.9125C3.81525 11.0219 3.96362 11.0834 4.11833 11.0834L15.2775 11.0834L11.0833 15.3126C10.9743 15.4224 10.9133 15.5711 10.9138 15.7259C10.9144 15.8807 10.9764 16.0289 11.0862 16.138C11.1961 16.247 11.3448 16.308 11.4996 16.3075C11.6544 16.3069 11.8026 16.2449 11.9117 16.1351L11.8942 16.1351Z" fill="#585CE4"/>
</g>
</svg>
