<svg xmlns="http://www.w3.org/2000/svg" width="17" height="18" viewBox="0 0 17 18" fill="none">
<path d="M3.64691 4.98157H2.76461C2.2966 4.98157 1.84777 5.16971 1.51684 5.5046C1.18591 5.83949 1 6.29371 1 6.76732V14.8032C1 15.2768 1.18591 15.731 1.51684 16.0659C1.84777 16.4008 2.2966 16.5889 2.76461 16.5889H10.7053C11.1733 16.5889 11.6222 16.4008 11.9531 16.0659C12.284 15.731 12.47 15.2768 12.47 14.8032V13.9103" stroke="#585CE4" stroke-width="2" stroke-linecap="round" stroke-linejoin="round"/>
<path d="M11.5885 3.19685L14.2354 5.87548M15.4574 4.61206C15.8049 4.2604 16.0001 3.78346 16.0001 3.28614C16.0001 2.78883 15.8049 2.31188 15.4574 1.96022C15.1099 1.60857 14.6386 1.41101 14.1472 1.41101C13.6557 1.41101 13.1844 1.60857 12.8369 1.96022L5.41235 9.44697V12.1256H8.05927L15.4574 4.61206Z" stroke="#585CE4" stroke-width="2" stroke-linecap="round" stroke-linejoin="round"/>
</svg>