<svg width="20" height="20" viewBox="0 0 20 20" fill="none" xmlns="http://www.w3.org/2000/svg">
<g id="healthicons:yes-outline">
<g id="Group">
<path id="Vector" fill-rule="evenodd" clip-rule="evenodd" d="M9.99984 17.5C14.1419 17.5 17.4998 14.142 17.4998 9.99996C17.4998 5.85788 14.1419 2.49996 9.99984 2.49996C5.85775 2.49996 2.49984 5.85788 2.49984 9.99996C2.49984 14.142 5.85775 17.5 9.99984 17.5ZM9.99984 18.3333C14.6023 18.3333 18.3332 14.6025 18.3332 9.99996C18.3332 5.39746 14.6023 1.66663 9.99984 1.66663C5.39734 1.66663 1.6665 5.39746 1.6665 9.99996C1.6665 14.6025 5.39734 18.3333 9.99984 18.3333Z" fill="#585CE4"/>
<path id="Vector_2" fill-rule="evenodd" clip-rule="evenodd" d="M14.4456 6.7745C14.5276 6.84856 14.5768 6.95213 14.5824 7.06246C14.588 7.17278 14.5496 7.28082 14.4756 7.36283L8.91061 13.5132L5.54561 10.3012C5.47005 10.2239 5.42744 10.1204 5.42677 10.0124C5.42609 9.90432 5.46741 9.80025 5.542 9.72209C5.61659 9.64393 5.71862 9.59781 5.82657 9.59344C5.93452 9.58906 6.03995 9.6268 6.12061 9.69867L8.86644 12.3195L13.8577 6.80408C13.8944 6.76349 13.9388 6.73054 13.9883 6.7071C14.0377 6.68367 14.0913 6.67021 14.146 6.6675C14.2007 6.66479 14.2554 6.67289 14.3069 6.69132C14.3585 6.70975 14.4059 6.73816 14.4464 6.77492L14.4456 6.7745Z" fill="#585CE4"/>
</g>
</g>
</svg>
