<svg width="130" height="130" viewBox="0 0 177 209" fill="none" xmlns="http://www.w3.org/2000/svg">
<g clip-path="url(#clip0_510_5765)">
<path opacity="0.4" d="M112.805 32.7963L113.035 32.0064C115.37 32.691 117.657 33.5286 119.882 34.5137L119.546 35.268C117.357 34.2948 115.105 33.469 112.805 32.7963ZM125.406 38.3478L125.827 37.6392C134.689 42.9524 142.066 50.4174 147.274 59.342L146.571 59.7617C141.433 50.9543 134.153 43.5882 125.406 38.3478Z" fill="#262627"/>
<path d="M117.292 203.863L108.412 206.118C107.994 206.224 107.559 206.243 107.133 206.175C106.707 206.107 106.3 205.953 105.936 205.721C105.572 205.49 105.259 205.187 105.017 204.831C104.774 204.474 104.607 204.072 104.525 203.649L93.1449 145.069L103.22 142.507L119.569 199.917C119.789 200.742 119.672 201.62 119.245 202.36C118.819 203.099 118.117 203.64 117.292 203.863Z" fill="#697389"/>
<path opacity="0.4" d="M117.292 203.863L108.412 206.118C107.994 206.224 107.559 206.243 107.133 206.175C106.707 206.107 106.3 205.953 105.936 205.721C105.572 205.49 105.259 205.187 105.017 204.831C104.774 204.474 104.607 204.072 104.525 203.649L93.1449 145.069L103.22 142.507L119.569 199.917C119.789 200.742 119.672 201.62 119.245 202.36C118.819 203.099 118.117 203.64 117.292 203.863Z" fill="#697389"/>
<path d="M128.634 120.906L128.884 120.462C129.171 119.921 129.456 119.402 129.722 118.818L129.826 118.595C130.056 118.107 130.276 117.618 130.496 117.13C130.566 116.949 130.636 116.779 130.717 116.598C130.892 116.173 131.056 115.747 131.22 115.311C131.29 115.151 131.349 114.981 131.419 114.821C131.631 114.236 131.832 113.65 132.023 113.052C132.025 112.988 132.028 112.912 132.083 112.85C132.251 112.316 132.407 111.783 132.553 111.249L132.7 110.682C132.822 110.234 132.933 109.785 133.033 109.325C133.039 109.153 133.12 108.972 133.157 108.801C133.295 108.181 133.411 107.56 133.517 106.927L133.523 106.744C133.616 106.176 133.698 105.608 133.77 105.029C133.776 104.835 133.782 104.641 133.842 104.449C133.9 103.977 133.947 103.505 133.983 103.032L134.001 102.473C134.021 101.827 134.041 101.181 134.061 100.536L134.065 100.396C134.084 99.7934 134.103 99.1908 134.122 98.5775L134.14 97.9857C134.155 97.5015 134.106 97.0153 134.089 96.5301C134.095 96.3364 134.101 96.1427 134.053 95.9473C134.009 95.289 133.954 94.6195 133.878 93.9601C133.883 93.9353 133.884 93.9098 133.88 93.8848C133.814 93.2473 133.726 92.6091 133.628 91.9705C133.634 91.7661 133.565 91.5701 133.528 91.3643C133.446 90.8771 133.364 90.3898 133.261 89.902L133.151 89.2954C133.01 88.634 132.858 87.9615 132.685 87.2991C126.66 63.5886 104.015 48.8709 82.1269 54.49L74.9835 56.3032C96.8809 50.7382 119.525 65.4559 125.551 89.1664C125.724 89.8288 125.875 90.5013 126.006 91.1623C125.999 91.3668 126.09 91.5635 126.127 91.7692C126.23 92.2571 126.312 92.7444 126.394 93.2316C126.387 93.436 126.457 93.632 126.493 93.8378C126.592 94.4764 126.68 95.1146 126.746 95.7521C126.746 95.7521 126.746 95.7521 126.744 95.8274C126.82 96.4868 126.874 97.1563 126.919 97.8146C126.913 98.0083 126.907 98.202 126.901 98.3957C126.885 98.8799 126.946 99.3664 126.963 99.8517L126.944 100.443C126.925 101.057 126.907 101.659 126.888 102.262L126.883 102.402C126.863 103.047 126.843 103.693 126.823 104.339L126.806 104.898L126.665 106.315C126.659 106.509 126.653 106.703 126.593 106.895C126.575 107.476 126.439 108.042 126.335 108.61C126.339 108.671 126.337 108.732 126.329 108.793C126.223 109.425 126.096 110.046 125.969 110.656C125.964 110.839 125.883 111.019 125.845 111.191C125.745 111.651 125.634 112.099 125.512 112.548L125.365 113.114C125.219 113.648 125.063 114.182 124.895 114.715C124.893 114.78 124.891 114.855 124.889 114.92C124.698 115.517 124.486 116.103 124.274 116.688C124.215 116.848 124.156 117.019 124.086 117.178C123.922 117.614 123.758 118.04 123.572 118.465C123.502 118.646 123.432 118.816 123.351 118.997C123.142 119.486 122.922 119.974 122.691 120.463L122.587 120.686C122.312 121.237 122.037 121.746 121.739 122.329L121.499 122.773L120.816 123.959L120.521 124.456C120.249 124.889 119.976 125.333 119.683 125.754L119.524 126.008C119.186 126.503 118.837 126.999 118.477 127.483L118.173 127.894L117.333 128.944L116.964 129.385C116.639 129.774 116.315 130.151 115.98 130.529C115.904 130.604 115.833 130.685 115.768 130.77C115.356 131.209 114.944 131.649 114.511 132.066L114.166 132.411L113.167 133.349L112.746 133.724C112.37 134.057 111.994 134.379 111.639 134.691L111.385 134.909L110.933 135.251C110.502 135.582 110.061 135.924 109.608 136.286L108.947 136.74C108.562 136.997 108.166 137.265 107.771 137.511L107.035 137.962L105.84 138.646C105.588 138.789 105.336 138.932 105.073 139.064C104.81 139.196 104.23 139.49 103.804 139.681L102.995 140.066L102.384 140.337L101.217 140.807L100.563 141.056L99.311 141.48L98.7232 141.677C98.1143 141.863 97.4946 142.048 96.8651 142.201L103.998 140.388C104.627 140.235 105.247 140.049 105.856 139.864C106.062 139.806 106.248 139.736 106.444 139.667L107.695 139.243L108.349 138.994L109.517 138.524L110.128 138.252L110.423 138.132L110.948 137.879C111.374 137.677 111.79 137.464 112.206 137.25C112.622 137.037 112.721 136.976 112.973 136.833L114.168 136.148L114.904 135.697C115.31 135.452 115.695 135.183 116.091 134.916C116.311 134.772 116.531 134.628 116.741 134.473C117.192 134.153 117.634 133.811 118.076 133.437L118.44 133.158L118.517 133.096L118.783 132.878C119.159 132.566 119.546 132.245 119.89 131.911L120.311 131.536C120.654 131.224 120.977 130.911 121.309 130.598L121.654 130.253C122.087 129.836 122.499 129.396 122.911 128.957C122.976 128.871 123.047 128.791 123.124 128.716C123.458 128.338 123.793 127.961 124.118 127.573L124.476 127.131C124.767 126.785 125.037 126.427 125.317 126.08L125.62 125.681C125.98 125.196 126.329 124.701 126.668 124.205C126.724 124.121 126.781 124.037 126.826 123.952C127.119 123.53 127.392 123.086 127.664 122.653C127.766 122.484 127.868 122.326 127.959 122.156C128.189 121.7 128.416 121.309 128.634 120.906Z" fill="#697389"/>
<path opacity="0.4" d="M128.634 120.906L128.884 120.462C129.171 119.921 129.456 119.402 129.722 118.818L129.826 118.595C130.056 118.107 130.276 117.618 130.496 117.13C130.566 116.949 130.636 116.779 130.717 116.598C130.892 116.173 131.056 115.747 131.22 115.311C131.29 115.151 131.349 114.981 131.419 114.821C131.631 114.236 131.832 113.65 132.023 113.052C132.025 112.988 132.028 112.912 132.083 112.85C132.251 112.316 132.407 111.783 132.553 111.249L132.7 110.682C132.822 110.234 132.933 109.785 133.033 109.325C133.039 109.153 133.12 108.972 133.157 108.801C133.295 108.181 133.411 107.56 133.517 106.927L133.523 106.744C133.616 106.176 133.698 105.608 133.77 105.029C133.776 104.835 133.782 104.641 133.842 104.449C133.9 103.977 133.947 103.505 133.983 103.032L134.001 102.473C134.021 101.827 134.041 101.181 134.061 100.536L134.065 100.396C134.084 99.7934 134.103 99.1908 134.122 98.5775L134.14 97.9857C134.155 97.5015 134.106 97.0153 134.089 96.5301C134.095 96.3364 134.101 96.1427 134.053 95.9473C134.009 95.289 133.954 94.6195 133.878 93.9601C133.883 93.9353 133.884 93.9098 133.88 93.8848C133.814 93.2473 133.726 92.6091 133.628 91.9705C133.634 91.7661 133.565 91.5701 133.528 91.3643C133.446 90.8771 133.364 90.3898 133.261 89.902L133.151 89.2954C133.01 88.634 132.858 87.9615 132.685 87.2991C126.66 63.5886 104.015 48.8709 82.1269 54.49L74.9835 56.3032C96.8809 50.7382 119.525 65.4559 125.551 89.1664C125.724 89.8288 125.875 90.5013 126.006 91.1623C125.999 91.3668 126.09 91.5635 126.127 91.7692C126.23 92.2571 126.312 92.7444 126.394 93.2316C126.387 93.436 126.457 93.632 126.493 93.8378C126.592 94.4764 126.68 95.1146 126.746 95.7521C126.746 95.7521 126.746 95.7521 126.744 95.8274C126.82 96.4868 126.874 97.1563 126.919 97.8146C126.913 98.0083 126.907 98.202 126.901 98.3957C126.885 98.8799 126.946 99.3664 126.963 99.8517L126.944 100.443C126.925 101.057 126.907 101.659 126.888 102.262L126.883 102.402C126.863 103.047 126.843 103.693 126.823 104.339L126.806 104.898L126.665 106.315C126.659 106.509 126.653 106.703 126.593 106.895C126.575 107.476 126.439 108.042 126.335 108.61C126.339 108.671 126.337 108.732 126.329 108.793C126.223 109.425 126.096 110.046 125.969 110.656C125.964 110.839 125.883 111.019 125.845 111.191C125.745 111.651 125.634 112.099 125.512 112.548L125.365 113.114C125.219 113.648 125.063 114.182 124.895 114.715C124.893 114.78 124.891 114.855 124.889 114.92C124.698 115.517 124.486 116.103 124.274 116.688C124.215 116.848 124.156 117.019 124.086 117.178C123.922 117.614 123.758 118.04 123.572 118.465C123.502 118.646 123.432 118.816 123.351 118.997C123.142 119.486 122.922 119.974 122.691 120.463L122.587 120.686C122.312 121.237 122.037 121.746 121.739 122.329L121.499 122.773L120.816 123.959L120.521 124.456C120.249 124.889 119.976 125.333 119.683 125.754L119.524 126.008C119.186 126.503 118.837 126.999 118.477 127.483L118.173 127.894L117.333 128.944L116.964 129.385C116.639 129.774 116.315 130.151 115.98 130.529C115.904 130.604 115.833 130.685 115.768 130.77C115.356 131.209 114.944 131.649 114.511 132.066L114.166 132.411L113.167 133.349L112.746 133.724C112.37 134.057 111.994 134.379 111.639 134.691L111.385 134.909L110.933 135.251C110.502 135.582 110.061 135.924 109.608 136.286L108.947 136.74C108.562 136.997 108.166 137.265 107.771 137.511L107.035 137.962L105.84 138.646C105.588 138.789 105.336 138.932 105.073 139.064C104.81 139.196 104.23 139.49 103.804 139.681L102.995 140.066L102.384 140.337L101.217 140.807L100.563 141.056L99.311 141.48L98.7232 141.677C98.1143 141.863 97.4946 142.048 96.8651 142.201L103.998 140.388C104.627 140.235 105.247 140.049 105.856 139.864C106.062 139.806 106.248 139.736 106.444 139.667L107.695 139.243L108.349 138.994L109.517 138.524L110.128 138.252L110.423 138.132L110.948 137.879C111.374 137.677 111.79 137.464 112.206 137.25C112.622 137.037 112.721 136.976 112.973 136.833L114.168 136.148L114.904 135.697C115.31 135.452 115.695 135.183 116.091 134.916C116.311 134.772 116.531 134.628 116.741 134.473C117.192 134.153 117.634 133.811 118.076 133.437L118.44 133.158L118.517 133.096L118.783 132.878C119.159 132.566 119.546 132.245 119.89 131.911L120.311 131.536C120.654 131.224 120.977 130.911 121.309 130.598L121.654 130.253C122.087 129.836 122.499 129.396 122.911 128.957C122.976 128.871 123.047 128.791 123.124 128.716C123.458 128.338 123.793 127.961 124.118 127.573L124.476 127.131C124.767 126.785 125.037 126.427 125.317 126.08L125.62 125.681C125.98 125.196 126.329 124.701 126.668 124.205C126.724 124.121 126.781 124.037 126.826 123.952C127.119 123.53 127.392 123.086 127.664 122.653C127.766 122.484 127.868 122.326 127.959 122.156C128.189 121.7 128.416 121.309 128.634 120.906Z" fill="#262627"/>
<path d="M41.6536 110.443C41.4365 109.574 41.2374 108.707 41.0561 107.839C40.9993 107.59 40.9535 107.33 40.897 107.07C40.7769 106.43 40.6565 105.802 40.5579 105.163C40.5121 104.904 40.4664 104.644 40.4314 104.384C40.3065 103.551 40.1924 102.718 40.0995 101.897C40.0995 101.897 40.1015 101.832 40.1026 101.8C40.0107 100.946 39.9406 100.082 39.8918 99.2297C39.8995 98.9822 39.9075 98.724 39.8507 98.4745C39.8163 97.8488 39.7823 97.2122 39.7694 96.5871L39.7932 95.8232C39.818 95.0269 39.7887 94.2398 39.8024 93.4539L39.8078 93.2818C39.8339 92.4425 39.86 91.6032 39.8862 90.7639C39.8935 90.5272 39.9012 90.2797 39.909 90.0322C39.9282 89.4153 39.9903 88.8033 40.0954 88.1963L40.1834 87.4451C40.2818 86.705 40.3914 85.9545 40.5113 85.215L40.5184 84.9891C40.6622 84.175 40.8165 83.372 40.9922 82.5697L41.1428 81.8851C41.2799 81.2862 41.4275 80.6984 41.575 80.1106C41.6362 79.8756 41.7085 79.6301 41.7696 79.395C41.9636 78.701 42.1575 78.007 42.3727 77.3244C42.3757 77.2275 42.4325 77.1323 42.4567 77.0469C42.7068 76.2792 42.9676 75.5119 43.2497 74.756L43.4957 74.1174C43.7072 73.5531 43.9274 73.0538 44.1506 72.4576C44.2548 72.2239 44.3479 72.0006 44.4414 71.7666C44.7197 71.129 45.0085 70.5025 45.308 69.8764L45.4469 69.5684C45.7921 68.8575 46.1589 68.1473 46.5899 67.4499C46.6928 67.2592 46.796 67.0578 46.9096 66.8674C47.195 66.3486 47.4919 65.8085 47.7867 65.333L48.1727 64.6988C48.5247 64.1174 48.8867 63.5579 49.3026 63L49.5064 62.6832C49.9468 62.0291 50.3973 61.3969 50.8693 60.7654C50.9934 60.5862 51.1279 60.418 51.2627 60.2391L52.3829 58.8523L52.8529 58.2853C53.2779 57.7816 53.7025 57.2886 54.1376 56.8067C54.2378 56.7021 54.3165 56.5969 54.4163 56.503C54.9405 55.927 55.5289 55.3637 56.0416 54.8088L56.4972 54.3599C56.9191 53.953 57.3411 53.5461 57.7734 53.1503L58.3272 52.6613C58.8144 52.2349 59.3012 51.8192 59.7985 51.4146L60.1414 51.1237C60.329 50.9788 60.5271 50.8449 60.715 50.6892C61.2779 50.2544 61.8192 49.8189 62.4355 49.3965L63.2828 48.8197C63.7891 48.4693 64.2952 48.1296 64.8227 47.7906L65.7779 47.2065L67.3132 46.328L68.3209 45.7886C68.8575 45.5037 69.415 45.241 69.9509 44.9777L71.0434 44.484L71.8402 44.1426L73.3567 43.522L74.1959 43.2035C74.7406 43.0051 75.2847 42.8281 75.8287 42.6512L76.5795 42.4053C77.3737 42.15 78.1777 41.9273 79.0028 41.7161L71.8701 43.5296C71.0449 43.7408 70.241 43.9635 69.4468 44.2188L68.6852 44.4644C68.1412 44.6413 67.5971 44.8182 67.0632 45.017L66.2239 45.3355L64.7075 45.9561L63.9106 46.2974L63.5179 46.4576L62.8505 46.7922C62.3038 47.0552 61.757 47.3182 61.2097 47.6027L60.2127 48.1425L58.6775 49.021L57.7115 49.6048C57.1951 49.9334 56.689 50.2731 56.1823 50.6342L55.3351 51.211C54.751 51.6344 54.2312 52.0706 53.6038 52.5034L53.1294 52.8656L53.041 52.9382L52.698 53.2291C52.2008 53.6337 51.7032 54.049 51.2268 54.4758L50.673 54.9648C50.2406 55.3606 49.8079 55.7671 49.386 56.174C49.241 56.3311 49.0857 56.477 48.9304 56.623C48.3854 57.1769 47.8188 57.73 47.3051 58.3172L47.0372 58.6212C46.6021 59.1031 46.1667 59.5957 45.7525 60.0998L45.2825 60.6668L44.1622 62.0536C44.0274 62.2325 43.8929 62.4007 43.7689 62.5799C43.2969 63.2114 42.8463 63.8436 42.4059 64.4977C42.3272 64.6029 42.2701 64.7089 42.2022 64.8145C41.8294 65.3737 41.4673 65.9333 41.0722 66.5133C40.9364 66.7245 40.8113 66.936 40.6863 67.1475C40.3904 67.6553 40.0932 68.2061 39.8092 68.6819L39.4787 69.264C39.1015 69.9631 38.7455 70.6737 38.4002 71.3845C38.3431 71.4905 38.3078 71.5863 38.2614 71.6926C37.9618 72.3187 37.6731 72.9452 37.3947 73.5827C37.3013 73.8168 37.2082 74.0401 37.1039 74.2738C36.8824 74.8162 36.6616 75.337 36.4491 75.9336L36.203 76.5721C35.921 77.3281 35.6601 78.0954 35.4101 78.8631C35.4074 78.9492 35.4044 79.046 35.326 79.1405C35.1109 79.8231 34.9062 80.5169 34.723 81.2112C34.6511 81.4459 34.5896 81.6918 34.5284 81.9268C34.3809 82.5146 34.2333 83.1024 34.0962 83.7012L33.9456 84.3859C33.7698 85.1882 33.6048 85.9908 33.4718 86.8053L33.4647 87.0312C33.3448 87.7706 33.2352 88.5212 33.1368 89.2613L33.0488 90.0125C33.0297 90.6258 32.9137 91.2361 32.862 91.8592C32.8546 92.0959 32.8469 92.3434 32.8395 92.5801C32.8134 93.4194 32.7873 94.2587 32.7611 95.098L32.7561 95.2594C32.7316 96.0448 32.7068 96.8411 32.682 97.6373C32.6743 97.8848 32.6663 98.1431 32.6583 98.4013C32.6388 99.0254 32.6944 99.6626 32.7287 100.288L32.7698 101.044C32.8294 101.896 32.8995 102.76 32.9914 103.614C32.9914 103.614 32.9893 103.678 32.9883 103.711C33.0705 104.532 33.1846 105.365 33.3202 106.198C33.3121 106.456 33.4009 106.718 33.4359 106.977C33.5453 107.616 33.6657 108.245 33.7858 108.884C33.8316 109.144 33.8881 109.404 33.9342 109.653C34.1226 110.521 34.311 111.388 34.5317 112.257C42.3202 142.991 71.6686 162.053 100.113 154.796L107.246 152.983C78.8013 160.239 49.4636 141.177 41.6536 110.443Z" fill="#697389"/>
<path opacity="0.4" d="M41.6536 110.443C41.4365 109.574 41.2374 108.707 41.0561 107.839C40.9993 107.59 40.9535 107.33 40.897 107.07C40.7769 106.43 40.6565 105.802 40.5579 105.163C40.5121 104.904 40.4664 104.644 40.4314 104.384C40.3065 103.551 40.1924 102.718 40.0995 101.897C40.0995 101.897 40.1015 101.832 40.1026 101.8C40.0107 100.946 39.9406 100.082 39.8918 99.2297C39.8995 98.9822 39.9075 98.724 39.8507 98.4745C39.8163 97.8488 39.7823 97.2122 39.7694 96.5871L39.7932 95.8232C39.818 95.0269 39.7887 94.2398 39.8024 93.4539L39.8078 93.2818C39.8339 92.4425 39.86 91.6032 39.8862 90.7639C39.8935 90.5272 39.9012 90.2797 39.909 90.0322C39.9282 89.4153 39.9903 88.8033 40.0954 88.1963L40.1834 87.4451C40.2818 86.705 40.3914 85.9545 40.5113 85.215L40.5184 84.9891C40.6622 84.175 40.8165 83.372 40.9922 82.5697L41.1428 81.8851C41.2799 81.2862 41.4275 80.6984 41.575 80.1106C41.6362 79.8756 41.7085 79.6301 41.7696 79.395C41.9636 78.701 42.1575 78.007 42.3727 77.3244C42.3757 77.2275 42.4325 77.1323 42.4567 77.0469C42.7068 76.2792 42.9676 75.5119 43.2497 74.756L43.4957 74.1174C43.7072 73.5531 43.9274 73.0538 44.1506 72.4576C44.2548 72.2239 44.3479 72.0006 44.4414 71.7666C44.7197 71.129 45.0085 70.5025 45.308 69.8764L45.4469 69.5684C45.7921 68.8575 46.1589 68.1473 46.5899 67.4499C46.6928 67.2592 46.796 67.0578 46.9096 66.8674C47.195 66.3486 47.4919 65.8085 47.7867 65.333L48.1727 64.6988C48.5247 64.1174 48.8867 63.5579 49.3026 63L49.5064 62.6832C49.9468 62.0291 50.3973 61.3969 50.8693 60.7654C50.9934 60.5862 51.1279 60.418 51.2627 60.2391L52.3829 58.8523L52.8529 58.2853C53.2779 57.7816 53.7025 57.2886 54.1376 56.8067C54.2378 56.7021 54.3165 56.5969 54.4163 56.503C54.9405 55.927 55.5289 55.3637 56.0416 54.8088L56.4972 54.3599C56.9191 53.953 57.3411 53.5461 57.7734 53.1503L58.3272 52.6613C58.8144 52.2349 59.3012 51.8192 59.7985 51.4146L60.1414 51.1237C60.329 50.9788 60.5271 50.8449 60.715 50.6892C61.2779 50.2544 61.8192 49.8189 62.4355 49.3965L63.2828 48.8197C63.7891 48.4693 64.2952 48.1296 64.8227 47.7906L65.7779 47.2065L67.3132 46.328L68.3209 45.7886C68.8575 45.5037 69.415 45.241 69.9509 44.9777L71.0434 44.484L71.8402 44.1426L73.3567 43.522L74.1959 43.2035C74.7406 43.0051 75.2847 42.8281 75.8287 42.6512L76.5795 42.4053C77.3737 42.15 78.1777 41.9273 79.0028 41.7161L71.8701 43.5296C71.0449 43.7408 70.241 43.9635 69.4468 44.2188L68.6852 44.4644C68.1412 44.6413 67.5971 44.8182 67.0632 45.017L66.2239 45.3355L64.7075 45.9561L63.9106 46.2974L63.5179 46.4576L62.8505 46.7922C62.3038 47.0552 61.757 47.3182 61.2097 47.6027L60.2127 48.1425L58.6775 49.021L57.7115 49.6048C57.1951 49.9334 56.689 50.2731 56.1823 50.6342L55.3351 51.211C54.751 51.6344 54.2312 52.0706 53.6038 52.5034L53.1294 52.8656L53.041 52.9382L52.698 53.2291C52.2008 53.6337 51.7032 54.049 51.2268 54.4758L50.673 54.9648C50.2406 55.3606 49.8079 55.7671 49.386 56.174C49.241 56.3311 49.0857 56.477 48.9304 56.623C48.3854 57.1769 47.8188 57.73 47.3051 58.3172L47.0372 58.6212C46.6021 59.1031 46.1667 59.5957 45.7525 60.0998L45.2825 60.6668L44.1622 62.0536C44.0274 62.2325 43.8929 62.4007 43.7689 62.5799C43.2969 63.2114 42.8463 63.8436 42.4059 64.4977C42.3272 64.6029 42.2701 64.7089 42.2022 64.8145C41.8294 65.3737 41.4673 65.9333 41.0722 66.5133C40.9364 66.7245 40.8113 66.936 40.6863 67.1475C40.3904 67.6553 40.0932 68.2061 39.8092 68.6819L39.4787 69.264C39.1015 69.9631 38.7455 70.6737 38.4002 71.3845C38.3431 71.4905 38.3078 71.5863 38.2614 71.6926C37.9618 72.3187 37.6731 72.9452 37.3947 73.5827C37.3013 73.8168 37.2082 74.0401 37.1039 74.2738C36.8824 74.8162 36.6616 75.337 36.4491 75.9336L36.203 76.5721C35.921 77.3281 35.6601 78.0954 35.4101 78.8631C35.4074 78.9492 35.4044 79.046 35.326 79.1405C35.1109 79.8231 34.9062 80.5169 34.723 81.2112C34.6511 81.4459 34.5896 81.6918 34.5284 81.9268C34.3809 82.5146 34.2333 83.1024 34.0962 83.7012L33.9456 84.3859C33.7698 85.1882 33.6048 85.9908 33.4718 86.8053L33.4647 87.0312C33.3448 87.7706 33.2352 88.5212 33.1368 89.2613L33.0488 90.0125C33.0297 90.6258 32.9137 91.2361 32.862 91.8592C32.8546 92.0959 32.8469 92.3434 32.8395 92.5801C32.8134 93.4194 32.7873 94.2587 32.7611 95.098L32.7561 95.2594C32.7316 96.0448 32.7068 96.8411 32.682 97.6373C32.6743 97.8848 32.6663 98.1431 32.6583 98.4013C32.6388 99.0254 32.6944 99.6626 32.7287 100.288L32.7698 101.044C32.8294 101.896 32.8995 102.76 32.9914 103.614C32.9914 103.614 32.9893 103.678 32.9883 103.711C33.0705 104.532 33.1846 105.365 33.3202 106.198C33.3121 106.456 33.4009 106.718 33.4359 106.977C33.5453 107.616 33.6657 108.245 33.7858 108.884C33.8316 109.144 33.8881 109.404 33.9342 109.653C34.1226 110.521 34.311 111.388 34.5317 112.257C42.3202 142.991 71.6686 162.053 100.113 154.796L107.246 152.983C78.8013 160.239 49.4636 141.177 41.6536 110.443Z" fill="#697389"/>
<path d="M78.916 41.7241C107.295 34.5084 136.632 53.5812 144.453 84.3161C152.274 115.051 135.58 145.819 107.201 153.024C78.8228 160.229 49.4633 141.177 41.6532 110.443C33.8432 79.7082 50.5156 48.939 78.916 41.7241ZM103.968 140.301C125.855 134.735 138.732 111.01 132.705 87.3429C126.678 63.6755 104.035 48.9148 82.1467 54.5339C60.2584 60.153 47.3714 83.8453 53.3988 107.491C59.4263 131.137 82.058 145.919 103.968 140.301Z" fill="#9AA4B8"/>
<path d="M124.424 202.05L115.457 204.334C114.626 204.529 113.753 204.388 113.026 203.942C112.3 203.495 111.779 202.78 111.578 201.951L98.5396 143.697L110.352 140.693L126.701 198.103C126.92 198.928 126.804 199.807 126.377 200.546C125.95 201.286 125.248 201.826 124.424 202.05Z" fill="#9AA4B8"/>
<path opacity="0.1" d="M104.168 141.125C126.478 135.455 139.564 111.263 133.466 87.1082C127.368 62.9539 104.248 47.9521 81.9377 53.6227C59.6277 59.2933 46.542 83.4857 52.6506 107.64C58.7592 131.795 81.8471 146.796 104.168 141.125Z" fill="#CFD8E3"/>
<path opacity="0.1" d="M153.898 97.8042C151.925 89.9855 148.473 82.6171 143.728 76.0972L72.286 59.8707C65.803 63.862 60.2523 69.1985 56.0091 75.5195L153.898 97.8042Z" fill="#CFD8E3"/>
<path d="M30.2714 45.6268L25.2016 53.1375L24.4527 52.6295C23.3798 51.9467 22.4275 51.0909 21.6343 50.0968C21.0337 49.2629 20.5919 48.3254 20.331 47.3313C19.9043 45.2823 19.6092 43.2082 19.4474 41.1215C19.2942 39.4688 18.8647 38.3892 18.1366 37.9034C17.8348 37.6754 17.4885 37.5133 17.1201 37.4276C16.7517 37.342 16.3694 37.3346 15.998 37.406C15.188 37.6601 14.5048 38.2124 14.0866 38.9512C13.7827 39.3709 13.5688 39.8489 13.4585 40.3552C13.3482 40.8615 13.3439 41.3851 13.4457 41.8932C13.8853 43.2304 14.7443 44.3902 15.8953 45.2006L9.77424 52.2262C7.30224 50.337 5.61845 47.5983 5.04841 44.5397C4.52265 41.5937 5.50907 38.2784 8.0077 34.5937C9.54407 32.0699 11.8061 30.0683 14.4981 28.8505C15.9222 28.1953 17.4927 27.9229 19.0543 28.0603C20.6159 28.1977 22.1146 28.7401 23.4025 29.634C24.544 30.4068 25.4468 31.4832 26.0091 32.7418C26.7875 34.7788 27.2122 36.9338 27.2647 39.1139C27.2986 40.5605 27.582 41.9903 28.1024 43.3405C28.6215 44.273 29.3675 45.0594 30.2714 45.6268ZM27.0259 54.7345L32.4568 46.6965L39.5455 51.484L34.1254 59.5223L27.0259 54.7345Z" fill="#585CE4"/>
<path d="M98.5829 23.7145L91.08 22.5438L91.2003 21.7936C91.3297 20.741 91.6422 19.7192 92.1236 18.7743C92.5344 18.0223 93.0853 17.3558 93.7465 16.8108C95.1463 15.7639 96.6152 14.8129 98.1434 13.9643C99.3393 13.2583 99.9859 12.5568 100.104 11.8712C100.17 11.5651 100.171 11.2485 100.106 10.9422C100.041 10.6358 99.9127 10.3465 99.7287 10.0932C99.2577 9.56427 98.5999 9.23874 97.8937 9.18513C97.4686 9.10524 97.0315 9.11364 96.6098 9.20983C96.1881 9.30601 95.7906 9.48794 95.4421 9.74425C94.5747 10.5403 93.9867 11.5945 93.7652 12.7509L86.2928 10.601C86.8297 8.05092 88.2978 5.79254 90.4106 4.26691C92.4438 2.8439 95.2969 2.41935 98.9697 2.99328C101.414 3.27021 103.72 4.27229 105.59 5.87056C106.586 6.7168 107.345 7.80751 107.792 9.0356C108.239 10.2637 108.359 11.5869 108.14 12.8754C107.954 14.0083 107.463 15.069 106.72 15.9439C105.439 17.2466 103.949 18.3252 102.312 19.1347C101.225 19.6636 100.243 20.3847 99.4132 21.2631C98.9338 21.997 98.6481 22.8404 98.5829 23.7145ZM90.5566 24.477L98.5414 25.7381L97.4493 32.7911L89.4646 31.53L90.5566 24.477Z" fill="#585CE4"/>
<path d="M159.209 77.7101L157.619 72.0384L158.195 71.884C158.981 71.6359 159.804 71.5267 160.628 71.5613C161.295 71.6093 161.948 71.7831 162.551 72.0735C163.743 72.7297 164.893 73.4598 165.994 74.2595C166.278 74.5231 166.615 74.7231 166.983 74.846C167.35 74.9689 167.74 75.0119 168.126 74.9721C168.358 74.9146 168.577 74.8095 168.766 74.6634C168.956 74.5173 169.114 74.3334 169.229 74.1233C169.449 73.6183 169.467 73.0484 169.279 72.5308C169.197 72.2042 169.049 71.8977 168.844 71.6302C168.639 71.3627 168.382 71.1398 168.089 70.9751C167.236 70.6162 166.29 70.5414 165.392 70.7618L164.501 64.778C166.474 64.3507 168.536 64.668 170.29 65.6691C171.96 66.6582 173.184 68.538 173.958 71.3302C174.557 73.1523 174.594 75.1126 174.063 76.9557C173.786 77.9372 173.258 78.8297 172.531 79.5455C171.805 80.2612 170.904 80.7755 169.919 81.0379C169.053 81.2715 168.141 81.2617 167.281 81.0096C165.944 80.536 164.698 79.838 163.597 78.9454C162.866 78.3532 162.039 77.8903 161.151 77.5768C160.502 77.4671 159.837 77.5128 159.209 77.7101ZM156.073 72.2272L157.769 78.3008L152.401 79.7923L150.717 73.7191L156.073 72.2272Z" fill="#585CE4"/>
</g>
<defs>
<clipPath id="clip0_510_5765">
<rect width="170.415" height="202.969" fill="white" transform="translate(6.31836) rotate(1.78378)"/>
</clipPath>
</defs>
</svg>
