<svg width="20" height="20" viewBox="0 0 20 20" fill="none" xmlns="http://www.w3.org/2000/svg">
<path fill-rule="evenodd" clip-rule="evenodd" d="M9.99984 18.3334C14.6023 18.3334 18.3332 14.6026 18.3332 10.0001C18.3332 5.39758 14.6023 1.66675 9.99984 1.66675C5.39734 1.66675 1.6665 5.39758 1.6665 10.0001C1.6665 14.6026 5.39734 18.3334 9.99984 18.3334ZM14.4757 7.36258C14.5147 7.32242 14.5451 7.27482 14.5653 7.22261C14.5855 7.1704 14.595 7.11467 14.5931 7.05873C14.5913 7.00279 14.5782 6.94779 14.5547 6.89701C14.5311 6.84624 14.4976 6.80073 14.456 6.76321C14.4145 6.72568 14.3658 6.69691 14.313 6.67861C14.2601 6.6603 14.204 6.65284 14.1482 6.65667C14.0923 6.6605 14.0378 6.67555 13.9879 6.7009C13.938 6.72626 13.8938 6.7614 13.8578 6.80425L8.8665 12.3197L6.12067 9.69841C6.04077 9.62205 5.93382 9.58056 5.82333 9.58306C5.71284 9.58556 5.60786 9.63185 5.5315 9.71175C5.45514 9.79164 5.41365 9.8986 5.41615 10.0091C5.41865 10.1196 5.46494 10.2246 5.54484 10.3009L8.60067 13.2176L8.91025 13.5134L9.19734 13.1959L14.4757 7.36258Z" fill="#585CE4"/>
</svg>
